<svg class="logo-svg" clip-rule="evenodd" fill-rule="evenodd" viewBox="0 0 450 704" xmlns="http://www.w3.org/2000/svg"><g fill-rule="nonzero"><g stroke-width="10"><path d="m308.621 20.616c11.46.04 21.53 4.04 31.65 8.98 4.93 2.49 8.92 7.38 12.43 11.55 4.74 5.59 7.64 12 10.15 18.83 3.98 11.4 4 24.12 1.62 35.87-1.86 9.16-3.62 18.34-5.48 27.5-2.22 12.89-7.58 25.39-14.94 36.17-1.88 2.44-3.73 5.79-7.31 5.47-2.98.18-5.12-2.92-4.71-5.71 1.23-9.24 8.55-13.52 10.59-22.2 6.58-20.88 3.7-44.33-7.97-62.87-5.79-10.16-14.18-17.69-23.61-24.4-3.27-2.22-6.8-4.59-10.76-5.29-5.18-.89-10.77.96-14.09 5.12-3.65 4.11-4.47 8.93-6.11 14-1.62 5.64-4.01 10.54-3.77 16.5.29 9.03.36 18.05.6 27.07.02 5.72 2.48 10.05 4.44 15.24 15.46 39.55 30.86 79.14 46.32 118.7 12.02 29.64 24.17 59.23 36.22 88.86 14.62 35.4 28.72 71.01 43.65 106.28 1.66 3.84 3.22 8.79 6.37 11.64 3.17 2.8 8.76 2.25 12.16 4.81 2.69 2.33 3.32 6.83.8 9.53-2.39 1.76-5.58 2.36-8.02 4.13.75 6.3 2.99 12.37 3.89 18.67 3.26 21.37 2.71 43.29-1.88 64.42-2.89 13.09-7.47 25.56-13.17 37.67-7.25 15.04-16.98 28.51-28.13 40.88-9.26 10.09-20.37 18.62-31.61 26.38-18.57 11.54-39.41 19.59-60.79 24.07-6.38 1.12-12.2 2.95-18.63 3.21-12.14.62-23.72 1.82-35.78-.68-16.1-2.5-31.78-6.62-47.59-10.45-5.11-1.28-9.35-3.64-14.15-5.74-6.69-2.97-13.39-5.94-20.09-8.9-5.18-2.33-10.21-3.62-14.71-7.27-8.23-6.54-16.46-13.79-22.81-22.2-4.75-6.2-9.26-12.2-12.77-19.23-1.65-3.31-2.19-6.91-3.83-10.22-1.51-3.14-3.3-6.06-4.6-9.31-8.24-23.56-9.35-49.42-2.42-73.45 5.31-18.04 14.58-34.81 27.46-48.55 6.01-6.29 12.2-12.57 19.1-17.88 10.29-7.61 21.72-13.76 33.68-18.3 31.39-11.26 67.59-9.14 97.35 5.96 23.38 11.52 43.15 30.74 55.06 53.94 8.19 16.05 11.23 34.5 7.73 52.25-1.8 9.97-5.85 18.68-10.27 27.7-3.86 7.73-9.69 14.11-15.59 20.4-3.94 4.01-8.41 7.03-14.31 6.17-1.75-2.63-.65-5.86-.18-8.71 2.1-9.07 3.6-18.69 2.85-28.01-.39-4.76-1.01-9.56-1.84-14.27-3.91-20.43-15.09-38.63-30.53-52.4-6.44-5.56-13.62-9.89-21.14-13.83-9.89-4.8-20.46-7.4-31.35-8.7-10.85-1.35-22.05-.01-32.61 2.62-15.39 3.78-29.52 12.22-41.01 23.03-9.84 9.41-18.47 21.24-22.7 34.29-5.34 15.75-6.89 32.98-4.23 49.4 1.22 6.83 3.23 13.47 6.75 19.49 4.6 8.07 9.69 16.21 15.73 23.28 2.92 3.51 5.93 6.79 10 8.98 5.93 3.27 11.26 7.36 16.83 11.19 4.94 3.55 11.05 4.89 16.89 7.03 21.04 7.17 43.72 9.54 65.79 7.19 11.13-2.62 22.16-5.8 33.3-8.45 4.14-.93 7.73-2.5 11.33-4.71 4.45-2.72 8.8-4.09 12.62-7.39 3.95-3.38 7.84-6.83 11.81-10.19 4.53-4.11 9.59-7.75 13.78-12.2 10.79-13.51 19.02-28.54 25.56-44.51 2.27-5.01 4.33-10.05 5.55-15.43 2.55-10.96 4.61-22.24 5.2-33.49.6-15.88-.07-32.36-3.9-47.84-1.88-10.4-5.75-19.92-9.17-29.85-16.8-48.16-33.68-96.3-50.48-144.45-1.13-3.23-2.15-6.59-3.6-9.69-1.68.54-2.24 1.89-3 3.33-15.98 36.19-32.12 72.72-48.19 108.86-.99 2.53-1.65 5.04-.34 7.61 1.64 2.81 4.72 4.84 6.37 7.65 1.02 1.94.81 4.21.5 6.3-6.17.2-12.42-1.74-18.57-2.43-9.29-1.53-18.89-1.59-28.27-1.05-5.99.32-12.05 2.14-18.01 1.9-2.5-3.17-3.47-7.7-4.9-11.44-12.95-36.67-26.12-73.28-39.11-109.94-1.59-4.48-2.97-9.32-5.16-13.51-3.15 3.78-4.76 9.13-6.82 13.62-20.64 47.04-41.2 94.1-61.86 141.13-2.15 4.97-2.86 9.99-5.37 14.63-2.1 3.74-5.13 7.8-9.82 8-5.99.44-12.04.14-18.05.23-3.28-.13-6.87.01-8.82-3.15-2.18-3.25-1.56-9.76 3.16-10.23 6.06-1.04 12.79-1.53 17.81-5.57 2.3-2.83 3.41-6.77 4.95-10.06 30.85-70.46 61.76-140.9 92.62-211.37 1.53-3.44 2.86-7.05 4.72-10.33 1.6-2.91 4.89-4.86 8.25-4.16 1.14 1.06 1.8 2.35 2.45 3.74 21.81 52.68 43.99 105.4 65.82 158.08 1.82 3.98 2.87 9.27 7.6 10.76 1.61-2.93 2.8-6.13 4.13-9.19 14.76-33.88 29.6-67.7 44.37-101.57 1.46-3.54 3.67-7.21 4.22-11.02-.64-3.95-2.41-7.76-3.64-11.56-7.26-21.38-14.67-42.71-21.87-64.12-1.07-3.2-2.23-6.38-3.59-9.47-3.36-7-3.98-15.62-5.58-23.28-3.33-16.57-3.02-33.77.77-50.24 2.41-11.57 7.23-21.87 12.78-32.21 2.55-4.67 5.63-8.94 8.8-13.2 3.12-4.12 5.06-8.52 8.96-12.06 6.4-5.89 12.98-11.75 19.72-17.26 3.08-2.36 6.22-5.18 10.35-5.12z" class="logo-dark-strokes"/><path d="m312.961 30.496c7.27-1.51 14.9.17 20.94 4.45 10.53 7.37 18.07 18.63 20.84 31.17 2.45 9.86.98 21.06-.16 31.09-1.02-5.09-1.97-10.1-4.1-14.87-2.8-6.85-7.01-12.6-11.68-18.28-7.21-8.44-15.58-16.06-24.96-22.05-3.36-2.16-6.98-3.94-10.26-6.22 2.3-3.15 5.71-4.43 9.38-5.29z" class="logo-light-strokes"/><path d="m266.101 83.106c.78 5.36.57 10.67.6 16.06.01 5.15.91 10.01 1.58 15.09 1.31 10.39 4.8 20.73 8.96 30.32 7.03 16.65 13.95 33.35 21.02 49.99 2.24 5.35 3.87 10.65 3.18 16.53-.51 5.63-3.18 9.82-4.77 15.09-2.06 6.67-3.67 13.64-9.08 18.51-1.78-2.43-1.93-5.06-2.62-7.89-.99-4.94-3.73-8.81-5.3-13.64-4.47-13.13-9.08-26.21-13.64-39.3-2.68-7.71-3.76-15.81-6.46-23.49-1.13-3.41-2.38-6.64-2.86-10.23-1.44-10.2-1.3-20.65-.82-30.92 1.23-12.9 1.54-25.61 10.21-36.12z" class="logo-light-strokes"/><path d="m258.521 442.366c12.3 6.09 24.56 13.89 34.03 23.91 7.43 7.38 13.58 16.12 18.94 25.08 5.98 10.27 9.49 21.87 9.44 33.8.09 18.73-5.79 37.36-17.9 51.79.61-4.91 1.52-9.57 1.4-14.56-.12-4.59-.64-9.17-1.15-13.72-1.27-11.33-5.34-22.54-10.38-32.71-9.59-19.77-26.75-35.91-46.24-45.76-28.53-14.2-64.11-14.22-92.41.55-12.03 6.31-23.29 14.45-31.98 24.98-5.81 7.18-11.74 14.77-15.98 22.99-4.47 9.51-8.6 19.04-10.42 29.46.47-13.8 3.24-27.85 8.16-40.76 3.28-7.88 6.4-15.51 11.4-22.5 10.12-15.43 23.34-28.55 39.58-37.46 6.27-3.94 12.67-6.96 19.75-9.14 27.17-9.35 57.58-7.69 83.76 4.05z" class="logo-light-strokes"/><path d="m374.691 464.116c10.51.27 21.15-.23 31.63.54 2.27 3.37 3.19 7.79 4.26 11.67 4.59 19.54 4.21 40.38.46 60.03-4.03 22.81-12.9 44.97-26.16 64-16.27 24.35-39.86 44.06-66.12 56.88-6.36 3.17-13.11 5.26-19.37 8.66-6.1 3.64-14.53 3.15-21.5 4.62-23.67 4.39-48.02 2.78-71.06-4.04 7.94-2.04 15.48.36 23.42-.96 8.81-1.29 17.65-2.3 26.49-3.35 5.96-.64 11.64-3.54 17.47-5.45 14.63-5.03 28.4-12.82 40.21-22.83 6.89-6.17 12.99-13.02 18.7-20.29 3.91-5.05 8.06-9.37 10.79-15.23 2.89-6.35 7.67-11.31 10.21-17.77 11.23-28.3 16.03-59.03 13.27-89.38-.77-6.22-1.85-12.41-3.07-18.56-.4-2.3-.92-4.76-.26-7.07 2.95-1.84 7.27-1.41 10.63-1.47z" class="logo-light-strokes"/></g><path d="m308.621 20.616c11.46.04 21.53 4.04 31.65 8.98 4.93 2.49 8.92 7.38 12.43 11.55 4.74 5.59 7.64 12 10.15 18.83 3.98 11.4 4 24.12 1.62 35.87-1.86 9.16-3.62 18.34-5.48 27.5-2.22 12.89-7.58 25.39-14.94 36.17-1.88 2.44-3.73 5.79-7.31 5.47-2.98.18-5.12-2.92-4.71-5.71 1.23-9.24 8.55-13.52 10.59-22.2 6.58-20.88 3.7-44.33-7.97-62.87-5.79-10.16-14.18-17.69-23.61-24.4-3.27-2.22-6.8-4.59-10.76-5.29-5.18-.89-10.77.96-14.09 5.12-3.65 4.11-4.47 8.93-6.11 14-1.62 5.64-4.01 10.54-3.77 16.5.29 9.03.36 18.05.6 27.07.02 5.72 2.48 10.05 4.44 15.24 15.46 39.55 30.86 79.14 46.32 118.7 12.02 29.64 24.17 59.23 36.22 88.86 14.62 35.4 28.72 71.01 43.65 106.28 1.66 3.84 3.22 8.79 6.37 11.64 3.17 2.8 8.76 2.25 12.16 4.81 2.69 2.33 3.32 6.83.8 9.53-2.39 1.76-5.58 2.36-8.02 4.13.75 6.3 2.99 12.37 3.89 18.67 3.26 21.37 2.71 43.29-1.88 64.42-2.89 13.09-7.47 25.56-13.17 37.67-7.25 15.04-16.98 28.51-28.13 40.88-9.26 10.09-20.37 18.62-31.61 26.38-18.57 11.54-39.41 19.59-60.79 24.07-6.38 1.12-12.2 2.95-18.63 3.21-12.14.62-23.72 1.82-35.78-.68-16.1-2.5-31.78-6.62-47.59-10.45-5.11-1.28-9.35-3.64-14.15-5.74-6.69-2.97-13.39-5.94-20.09-8.9-5.18-2.33-10.21-3.62-14.71-7.27-8.23-6.54-16.46-13.79-22.81-22.2-4.75-6.2-9.26-12.2-12.77-19.23-1.65-3.31-2.19-6.91-3.83-10.22-1.51-3.14-3.3-6.06-4.6-9.31-8.24-23.56-9.35-49.42-2.42-73.45 5.31-18.04 14.58-34.81 27.46-48.55 6.01-6.29 12.2-12.57 19.1-17.88 10.29-7.61 21.72-13.76 33.68-18.3 31.39-11.26 67.59-9.14 97.35 5.96 23.38 11.52 43.15 30.74 55.06 53.94 8.19 16.05 11.23 34.5 7.73 52.25-1.8 9.97-5.85 18.68-10.27 27.7-3.86 7.73-9.69 14.11-15.59 20.4-3.94 4.01-8.41 7.03-14.31 6.17-1.75-2.63-.65-5.86-.18-8.71 2.1-9.07 3.6-18.69 2.85-28.01-.39-4.76-1.01-9.56-1.84-14.27-3.91-20.43-15.09-38.63-30.53-52.4-6.44-5.56-13.62-9.89-21.14-13.83-9.89-4.8-20.46-7.4-31.35-8.7-10.85-1.35-22.05-.01-32.61 2.62-15.39 3.78-29.52 12.22-41.01 23.03-9.84 9.41-18.47 21.24-22.7 34.29-5.34 15.75-6.89 32.98-4.23 49.4 1.22 6.83 3.23 13.47 6.75 19.49 4.6 8.07 9.69 16.21 15.73 23.28 2.92 3.51 5.93 6.79 10 8.98 5.93 3.27 11.26 7.36 16.83 11.19 4.94 3.55 11.05 4.89 16.89 7.03 21.04 7.17 43.72 9.54 65.79 7.19 11.13-2.62 22.16-5.8 33.3-8.45 4.14-.93 7.73-2.5 11.33-4.71 4.45-2.72 8.8-4.09 12.62-7.39 3.95-3.38 7.84-6.83 11.81-10.19 4.53-4.11 9.59-7.75 13.78-12.2 10.79-13.51 19.02-28.54 25.56-44.51 2.27-5.01 4.33-10.05 5.55-15.43 2.55-10.96 4.61-22.24 5.2-33.49.6-15.88-.07-32.36-3.9-47.84-1.88-10.4-5.75-19.92-9.17-29.85-16.8-48.16-33.68-96.3-50.48-144.45-1.13-3.23-2.15-6.59-3.6-9.69-1.68.54-2.24 1.89-3 3.33-15.98 36.19-32.12 72.72-48.19 108.86-.99 2.53-1.65 5.04-.34 7.61 1.64 2.81 4.72 4.84 6.37 7.65 1.02 1.94.81 4.21.5 6.3-6.17.2-12.42-1.74-18.57-2.43-9.29-1.53-18.89-1.59-28.27-1.05-5.99.32-12.05 2.14-18.01 1.9-2.5-3.17-3.47-7.7-4.9-11.44-12.95-36.67-26.12-73.28-39.11-109.94-1.59-4.48-2.97-9.32-5.16-13.51-3.15 3.78-4.76 9.13-6.82 13.62-20.64 47.04-41.2 94.1-61.86 141.13-2.15 4.97-2.86 9.99-5.37 14.63-2.1 3.74-5.13 7.8-9.82 8-5.99.44-12.04.14-18.05.23-3.28-.13-6.87.01-8.82-3.15-2.18-3.25-1.56-9.76 3.16-10.23 6.06-1.04 12.79-1.53 17.81-5.57 2.3-2.83 3.41-6.77 4.95-10.06 30.85-70.46 61.76-140.9 92.62-211.37 1.53-3.44 2.86-7.05 4.72-10.33 1.6-2.91 4.89-4.86 8.25-4.16 1.14 1.06 1.8 2.35 2.45 3.74 21.81 52.68 43.99 105.4 65.82 158.08 1.82 3.98 2.87 9.27 7.6 10.76 1.61-2.93 2.8-6.13 4.13-9.19 14.76-33.88 29.6-67.7 44.37-101.57 1.46-3.54 3.67-7.21 4.22-11.02-.64-3.95-2.41-7.76-3.64-11.56-7.26-21.38-14.67-42.71-21.87-64.12-1.07-3.2-2.23-6.38-3.59-9.47-3.36-7-3.98-15.62-5.58-23.28-3.33-16.57-3.02-33.77.77-50.24 2.41-11.57 7.23-21.87 12.78-32.21 2.55-4.67 5.63-8.94 8.8-13.2 3.12-4.12 5.06-8.52 8.96-12.06 6.4-5.89 12.98-11.75 19.72-17.26 3.08-2.36 6.22-5.18 10.35-5.12z"/><path d="m312.961 30.496c7.27-1.51 14.9.17 20.94 4.45 10.53 7.37 18.07 18.63 20.84 31.17 2.45 9.86.98 21.06-.16 31.09-1.02-5.09-1.97-10.1-4.1-14.87-2.8-6.85-7.01-12.6-11.68-18.28-7.21-8.44-15.58-16.06-24.96-22.05-3.36-2.16-6.98-3.94-10.26-6.22 2.3-3.15 5.71-4.43 9.38-5.29z" class="logo-lights"/><path d="m266.101 83.106c.78 5.36.57 10.67.6 16.06.01 5.15.91 10.01 1.58 15.09 1.31 10.39 4.8 20.73 8.96 30.32 7.03 16.65 13.95 33.35 21.02 49.99 2.24 5.35 3.87 10.65 3.18 16.53-.51 5.63-3.18 9.82-4.77 15.09-2.06 6.67-3.67 13.64-9.08 18.51-1.78-2.43-1.93-5.06-2.62-7.89-.99-4.94-3.73-8.81-5.3-13.64-4.47-13.13-9.08-26.21-13.64-39.3-2.68-7.71-3.76-15.81-6.46-23.49-1.13-3.41-2.38-6.64-2.86-10.23-1.44-10.2-1.3-20.65-.82-30.92 1.23-12.9 1.54-25.61 10.21-36.12z" class="logo-lights"/><path d="m258.521 442.366c12.3 6.09 24.56 13.89 34.03 23.91 7.43 7.38 13.58 16.12 18.94 25.08 5.98 10.27 9.49 21.87 9.44 33.8.09 18.73-5.79 37.36-17.9 51.79.61-4.91 1.52-9.57 1.4-14.56-.12-4.59-.64-9.17-1.15-13.72-1.27-11.33-5.34-22.54-10.38-32.71-9.59-19.77-26.75-35.91-46.24-45.76-28.53-14.2-64.11-14.22-92.41.55-12.03 6.31-23.29 14.45-31.98 24.98-5.81 7.18-11.74 14.77-15.98 22.99-4.47 9.51-8.6 19.04-10.42 29.46.47-13.8 3.24-27.85 8.16-40.76 3.28-7.88 6.4-15.51 11.4-22.5 10.12-15.43 23.34-28.55 39.58-37.46 6.27-3.94 12.67-6.96 19.75-9.14 27.17-9.35 57.58-7.69 83.76 4.05z" class="logo-lights"/><path d="m374.691 464.116c10.51.27 21.15-.23 31.63.54 2.27 3.37 3.19 7.79 4.26 11.67 4.59 19.54 4.21 40.38.46 60.03-4.03 22.81-12.9 44.97-26.16 64-16.27 24.35-39.86 44.06-66.12 56.88-6.36 3.17-13.11 5.26-19.37 8.66-6.1 3.64-14.53 3.15-21.5 4.62-23.67 4.39-48.02 2.78-71.06-4.04 7.94-2.04 15.48.36 23.42-.96 8.81-1.29 17.65-2.3 26.49-3.35 5.96-.64 11.64-3.54 17.47-5.45 14.63-5.03 28.4-12.82 40.21-22.83 6.89-6.17 12.99-13.02 18.7-20.29 3.91-5.05 8.06-9.37 10.79-15.23 2.89-6.35 7.67-11.31 10.21-17.77 11.23-28.3 16.03-59.03 13.27-89.38-.77-6.22-1.85-12.41-3.07-18.56-.4-2.3-.92-4.76-.26-7.07 2.95-1.84 7.27-1.41 10.63-1.47z" class="logo-lights"/></g></svg>